<?xml version="1.0" encoding="utf-8"?>
<!-- Generator: Adobe Illustrator 27.1.0, SVG Export Plug-In . SVG Version: 6.00 Build 0)  -->
<svg version="1.1" id="Layer_1" xmlns="http://www.w3.org/2000/svg" xmlns:xlink="http://www.w3.org/1999/xlink" x="0px" y="0px"
	 viewBox="0 0 874 240" style="enable-background:new 0 0 874 240;" xml:space="preserve">
<style type="text/css">
	.st0{fill:#FCCD13;}
	.st1{fill:#F45EAC;}
	.st2{fill:#1B6DAF;}
	.st3{fill:#235378;}
	.st4{fill:#26ABBE;}
</style>
<g>
	<g>
		<path class="st0" d="M151.8,10.6c1-0.8,3.3-0.7,3.3,0.8c0.4,1.8-1.6,2.7-2.7,3.7c-2,1.3-3.6,3.1-5.7,4.2c-2.3,0.9-4.4,2.3-6.3,3.8
			c-3.7,3-7.8,5.6-11.4,8.7c-10.6-0.9-21.3,0.2-31.7,2.3c8.8-6,18-11.5,26.8-17.5c4.8-0.3,9.7,0.4,14.4,1.3c1.2,0.1,2.7,0.6,3.8-0.2
			C145.6,15.5,148.6,12.8,151.8,10.6z"/>
		<path class="st0" d="M22.1,82.2c7.1-4.5,14.1-9.2,21.3-13.6c-6,8.3-11.1,17.3-14.2,27c-1.7,4.4-2.3,9-3.6,13.4
			c-6.1,3.8-11.6,8.4-17.4,12.6c-0.2-11.6,2.1-23.1,6-34C16.6,85.6,19.4,84,22.1,82.2z"/>
		<path class="st0" d="M215,107.6c4.1-3,7.6-6.8,11.7-9.8c1.7,6.1,2.7,12.3,3.1,18.6c0.4-0.3,0.9-0.6,1.3-0.9c2.1-1.3,3.9-3,6-4.3
			c1-0.7,3.2-0.6,3.3,0.9c0.5,1.8-1.6,2.6-2.7,3.6c-2.2,1.4-4,3.6-6.6,4.5c-2.6,0.5-4.3,2.6-6.2,4.1c-2.9,2.5-5.8,4.9-8.8,7.3
			C216.7,123.6,216.2,115.5,215,107.6z"/>
		<path class="st0" d="M85.6,220.8c3.5-2.9,6.7-6.1,10.4-8.7c6.5,1.7,13.3,2.4,20,3.2c-4.7,4.3-9.6,8.5-14.7,12.4
			c-2.7,0.3-5.3-0.9-7.9-1.5c-1.8-0.4-3.8-1.4-5.5-0.4c-3,2.8-6,5.5-9.2,8c-1.3,1.4-3.5-0.2-3.3-1.7c2.1-2.9,5.6-4.5,7.7-7.5
			C83.7,223.2,84.3,221.8,85.6,220.8z"/>
	</g>
	<g>
		<path class="st1" d="M55.4,35.7C71.1,25.1,89.8,18.6,109,16.8c5.1-0.1,10.2-0.9,15.2-0.1c-8.8,6-18.1,11.4-26.8,17.5
			c-1.9,0.6-3.8,1.2-5.7,1.7c-19.2,5.6-36.1,17.5-48.2,32.8c-7.2,4.4-14.2,9-21.3,13.6c-2.7,1.8-5.5,3.3-7.9,5.4
			c1.9-5.1,4.7-9.9,6.8-15c-1.9,1.2-3.6,2.8-5.6,3.9c-1.6,0.6-3.4-1.5-2.1-2.8c5-4.8,11.1-8.5,15.9-13.5
			C36.5,50.9,45.3,42.5,55.4,35.7z"/>
		<path class="st1" d="M197.6,20.4c1.6-1.6,4.4,1,2.6,2.5c-2.6,2.5-5.8,4.5-8.6,6.8c-2.6,2.2-5.9,3.8-7.8,6.8c-3.4,3.7-8,6-11.7,9.5
			c-4.5-2.6-9.1-4.9-13.8-7.1c4.3-3.6,9.6-5.9,13.9-9.6c2.6,1.4,5.1,3,7.8,4.3C186,29.5,191.6,24.6,197.6,20.4z"/>
		<path class="st1" d="M204.1,78.6c3.3-3.2,6.8-6.3,10.4-9.2c0.4,0.1,1.1,0.4,1.4,0.5c3.2,4.9,5.4,10.4,8.1,15.6
			c3.3-2.2,5.8-5.3,9.2-7.4c1.6-0.9,3.6,1.5,2.3,2.7c-3.1,3.2-6.8,5.9-10.2,8.9c-0.4,2.7,0.9,5.4,1.3,8c-4.1,3.1-7.5,6.8-11.7,9.8
			C213,97.4,209.4,87.6,204.1,78.6z"/>
		<path class="st1" d="M8.7,134.2c5.4-3.2,10.7-6.7,15.9-10.1c0.1,9.5,1.9,18.9,4.8,28c-4.5,3.2-8.8,6.4-13.2,9.8
			c-0.7-1.1-1.4-2.1-2.1-3.2c-1.9,1.3-3.6,2.9-5.6,4.1c-1.6,1-3.6-1.6-2.2-2.8c1.9-2.1,4.8-3.4,6.5-5.7c-0.4-2.7-1.4-5.2-2.1-7.8
			C9.6,142.5,9.2,138.3,8.7,134.2z"/>
		<path class="st1" d="M53.2,208.7c4.2-3.2,8-7,12.2-10.2c9.3,6.2,19.7,10.9,30.6,13.6c-3.7,2.6-6.9,5.8-10.4,8.7
			c-1.3,1-1.9,2.4-2.6,3.8c-2.9-1.7-6.2-2.5-9.2-4C66.6,217.3,59.4,213.6,53.2,208.7z"/>
	</g>
	<g>
		<path class="st2" d="M140.4,23.1c1.9-1.5,4-2.9,6.3-3.8c3.3,1.6,7,2.2,10.5,3.4c5.1,1.9,10.1,4,14.9,6.6c-4.2,3.7-9.6,6-13.9,9.6
			c-4.4-1.7-8.9-3.1-13.6-4.3c-5.1-1.4-10.4-1.8-15.7-2.7C132.6,28.7,136.7,26.1,140.4,23.1z"/>
		<path class="st2" d="M187.4,57.7c4-2.8,7.6-6,11.6-8.8c6.5,6.3,12.2,13.4,16.9,21c-0.4-0.1-1.1-0.4-1.4-0.5
			c-3.6,2.9-7.1,6-10.4,9.2C199.7,70.9,194,63.9,187.4,57.7z"/>
		<path class="st2" d="M226.7,97.8c-0.5-2.7-1.8-5.3-1.3-8c3,8.3,4.6,17,5.7,25.7c-0.4,0.3-0.9,0.6-1.3,0.9
			C229.4,110.1,228.4,103.8,226.7,97.8z"/>
		<path class="st2" d="M8.2,121.7c5.8-4.2,11.3-8.8,17.4-12.6c-0.2,5-1,10-0.9,15c-5.3,3.4-10.5,6.9-15.9,10.1
			C8.1,130.1,8.3,125.9,8.2,121.7z"/>
		<path class="st2" d="M224.8,124.2c1.9-1.6,3.6-3.7,6.2-4.1c0.6,11.2-1.1,22.4-4.2,33.2c-0.5,0.3-1,0.6-1.4,0.8
			c0.9-3.5,2-6.9,2.2-10.4c-6.5,4-11.6,9.8-18,13.9c0.9-2.9,1.8-5.7,2.8-8.6c1.9-5.7,2.7-11.6,3.5-17.5
			C219,129.2,221.9,126.7,224.8,124.2z"/>
		<path class="st2" d="M219.9,167.2c0.8-1.9,1.9-3.8,3.5-5.2c-0.1,0.8-0.3,1.6-0.5,2.3c-9.1,21.5-25.9,39.9-46.9,51.6
			c-18.1,10.2-39.3,15-60.2,14.4c-9.4-0.6-18.8-2-27.9-4.5c1.8-1,3.7,0,5.5,0.4c2.6,0.6,5.2,1.8,7.9,1.5c5.1-3.9,10-8.1,14.7-12.4
			c5.6-0.1,11.2-0.1,16.8-0.9c3.2-0.5,6.4-0.9,9.7-1.3c-4,3.8-8.2,7.5-12.7,10.8c-1.8,1.4-3.3,2.9-4.8,4.6c1.7,0.4,3.4,0.5,5.1,0.3
			c18-2,35.6-7.7,50.7-17.4c8.6-5.3,16-12.1,22.8-19.4C210.3,184.6,215.8,176.2,219.9,167.2z"/>
		<path class="st2" d="M39.7,172.7c6.7,10.1,15.5,18.9,25.7,25.8c-4.2,3.2-8,7-12.2,10.2c-0.9-0.6-1.9-1.1-2.8-1.7
			c-6.8,5.6-13.3,11.4-20.1,17c-1,1.1-3.6,1.2-3.7-0.6c-0.4-1.4,1-2.3,1.9-3.1c4.6-3.9,9.2-7.8,13.7-11.7c1.5-1.3,3.2-2.6,4.5-4.1
			c0-0.8-0.8-1.3-1.3-1.8c-6.8-5.8-13-12.4-18.1-19.8C31.3,179.3,36.2,176.8,39.7,172.7z"/>
	</g>
	<g>
		<g>
			<path class="st3" d="M97.3,34.1c10.4-2.1,21.1-3.2,31.7-2.3c5.2,0.9,10.6,1.3,15.7,2.7c4.6,1.2,9.1,2.7,13.6,4.3
				c4.7,2.1,9.4,4.5,13.8,7.1c5.5,3.5,10.6,7.4,15.4,11.8c6.6,6.2,12.2,13.2,16.7,20.9c5.2,9,8.8,18.8,10.9,29c1.2,7.9,1.6,16,1,24
				c-0.8,5.9-1.6,11.8-3.5,17.5c-1,2.8-1.9,5.7-2.8,8.6c-3.9,7.7-7.9,15.5-13.6,22.1c-9.9,12.6-23.5,22.3-38.6,28.4
				c-4.8,2.2-10.1,3.2-15,5c-3.2,0.4-6.5,0.8-9.7,1.3c-5.5,0.9-11.2,0.8-16.8,0.9c-6.7-0.8-13.5-1.5-20-3.2
				c-10.9-2.8-21.3-7.5-30.6-13.6c-10.2-6.9-19-15.6-25.7-25.8c-4.3-6.5-7.7-13.4-10.3-20.6c-2.9-9.1-4.6-18.5-4.8-28
				c0-5,0.7-10,0.9-15c1.4-4.4,2-9.1,3.6-13.4c3.1-9.7,8.2-18.7,14.2-27c12.1-15.3,29-27.2,48.2-32.8C93.6,35.3,95.5,34.8,97.3,34.1
				z M112.8,69.3c-4.9,1.1-10,2-14.6,4.1c-18.1,7.2-31.4,24-34,42.6c-3.6,1.1-6.6,4.3-6.1,8.1c0.3,3.3,3.1,5.7,6.2,6.9
				c1.8,11.6,7.4,22.7,16.2,30.9c8.6,8.3,20.2,13.6,32.2,15.4c1.2,4.5,6.8,7.4,11.2,5.1c2.3-0.8,3.1-3.1,4.4-4.9
				c5-1.1,10.1-2,14.8-4.2c17.8-7.3,31.1-23.9,33.7-42.3c2.3-1.2,4.8-2.5,5.6-5c1.8-4.2-1.2-8.8-5.5-10c-1-4.1-1.7-8.4-3.5-12.3
				c-5.9-14.9-19-27-34.8-31.9c-3.4-1.1-6.9-1.7-10.4-2.5c-1.1-2.5-3-4.9-5.9-5.5C118.2,62.6,114,65.6,112.8,69.3z"/>
		</g>
		<path class="st3" d="M118.8,67.7c2.6-1.1,6,0.7,5.6,3.6c0.1,3.2-4.8,4.4-6.7,2.1C116.1,71.8,116.5,68.6,118.8,67.7z"/>
		<g>
			<path class="st3" d="M68.5,116.3c2.6-21.7,22-40.1,44.6-42.8c1.1,1.8,2.5,3.7,4.7,4.4c4,1.7,8.6-0.9,10.3-4.5
				c11.3,1.2,21.9,6.6,30,14.2c7.9,7.7,13.2,17.9,14.7,28.6c-3.4,1.4-6,4.9-5.1,8.6c0.5,2.7,2.9,4.5,5.2,5.8
				c-2.5,17.9-16,34-33.8,40c-3.4,1.4-7,2.5-10.8,2.4c-1.2-0.8-1.7-2.3-2.8-3.2c-2.1-1.5-5-2.3-7.5-1.2c-2.3,0.6-3.6,2.6-4.9,4.4
				c-12.3-1.4-23.7-7.6-31.9-16.3c-6.7-7.3-11.2-16.5-12.7-26.1c2.2-1.4,4.7-3.1,5-5.8C74.4,121.3,71.9,117.8,68.5,116.3z
				 M130.5,96.6c-5.3,2.1-9.9,5.4-14.7,8.4c-5.3,0-10.5-1-15.7-1.1c-1.2-0.2-1.9,1-2.5,1.8c-4.5,6.8-9,13.5-13.6,20.2
				c-0.7,1-1.4,2.7-0.1,3.5c2.7,0.5,5-1.4,7.4-2.3c3.2-1.2,6.1-3,9.4-4c1.8,0.8,3,2.6,4.4,3.9c-2.2,1.4-4.7,2.2-6.9,3.5
				c-1.1,0.8-0.8,2.4,0.2,3.1c3.4,3.5,7.1,6.7,10.5,10.2c1.3,1.1,2.6,3.1,4.6,2.2c1.5-2.2,2.4-4.8,4-6.9c1.3,1.4,3.3,2.4,4.1,4.2
				c-1.9,5.1-4.9,9.9-6.9,15c0.1,1.6,1.8,2.6,3.2,1.5c7.3-4.5,14.6-9.1,22-13.5c0.8-0.6,1.9-1.2,1.8-2.3c-0.3-5-0.9-10-1.1-15.1
				c1.2-2.5,3.3-4.5,4.7-6.9c3.7-6,7.2-12.7,6.8-19.9c-0.2-3.7-3-7.1-6.8-8C140.3,93.2,135.1,94.4,130.5,96.6z M96.3,135.6
				c-1.9,1.4-3.6,3.1-5.2,4.9c-1.2,1.3,0.2,3.9,2.1,2.9c2.1-1.4,3.8-3.2,5.4-5c0.9-0.8,0.2-1.9,0.1-2.9
				C97.8,135.5,97.1,135.5,96.3,135.6z M101.6,140.2c-1.5,0.6-2.5,2-3.6,3c-2.5,2.6-5.4,4.9-7.7,7.6c-1.2,1.6,0.9,3.8,2.6,2.5
				c3.3-2.7,6.2-5.9,9.3-8.8c0.8-0.9,2.1-1.8,1.8-3.1C103.6,140.6,102.7,139.8,101.6,140.2z M102.3,148.6c-0.7,0.9-2.2,1.8-1.8,3.1
				c0.1,1.3,2.2,1.6,3.1,0.8c1.7-1.4,3.3-2.9,4.8-4.6c0.9-1,0.1-2.3-0.3-3.3C105.5,144.7,104,147,102.3,148.6z"/>
		</g>
		<g>
			<path class="st3" d="M125.7,103.1c5.3-2.9,11-6,17.3-5.5c2.6-0.2,5.1,2,5.2,4.5c0.3,2.8-0.2,5.7-1.2,8.4
				c-2.1,5.2-5.1,10.2-8.6,14.6c-4.2,5.3-8.7,10.4-13.9,14.8c-1.3-0.5-2.2-1.7-3.2-2.6c-5.7-5.6-11.5-11.1-17.2-16.8
				C110.5,113.8,117.7,107.8,125.7,103.1z M121.5,111.7c-2.6,1.1-5.6,2.3-6.6,5.1c-1.4,3.5-0.9,7.8,1.9,10.5
				c4.1,4.5,12.7,4,15.8-1.2c2.8-3.9,2.1-9.9-1.9-12.8C128.2,111.1,124.6,111,121.5,111.7z"/>
		</g>
		<path class="st3" d="M90.8,123c3-5.3,6.7-10.2,9.9-15.4c3.4,0.2,6.9,0.5,10.3,0.7c-2.2,2.3-4.8,4.4-7,6.7
			c-1.8,1.8-3.4,3.9-5.9,4.9C95.7,121,93.4,122.2,90.8,123z"/>
		<path class="st3" d="M122.2,114.9c4.3-1.5,9.2,2.4,8.1,6.8c-0.5,4.7-7.2,6.7-10.5,3.2C116.3,122.1,118,116.2,122.2,114.9z"/>
		<path class="st3" d="M64.2,120.1c2.2-0.8,5.4,0.3,5.5,2.9c0.5,2.9-3,4.9-5.6,3.8C61.3,125.6,61.4,121.1,64.2,120.1z"/>
		<path class="st3" d="M173.4,120.1c2.5-1.1,6,0.6,5.6,3.5c0.2,2.7-3.3,4.4-5.6,3.1C170.6,125.5,170.7,121.3,173.4,120.1z"/>
		<path class="st3" d="M103.1,132.6c1.7-1,3.4-1.9,5.2-2.7c2.2,2,4.4,4,6.4,6.1c-0.8,1.7-1.8,3.3-2.9,4.9
			C108.7,138.3,105.8,135.5,103.1,132.6z"/>
		<path class="st3" d="M126.7,143.2c3.6-3.1,6.8-6.6,10.3-9.9c0.4,3.3,1,6.6,0.7,9.9c-5.3,3.4-10.8,6.7-16.2,10
			C123.3,149.8,124.2,146.1,126.7,143.2z"/>
		<path class="st3" d="M118.8,172.3c1.8-0.6,4.2-0.3,5.1,1.5c1.7,2.6-0.9,6.2-4.1,5.5C116.2,179.1,115.6,173.7,118.8,172.3z"/>
	</g>
	<path class="st4" d="M172.1,45.9c3.7-3.4,8.3-5.8,11.7-9.5c5.6,3.5,10.7,7.8,15.3,12.5c-4,2.8-7.6,6-11.6,8.8
		C182.7,53.3,177.6,49.4,172.1,45.9z"/>
	<path class="st4" d="M209.7,157.6c6.4-4.1,11.5-9.9,18-13.9c-0.2,3.6-1.4,7-2.2,10.4c0.5-0.3,1-0.6,1.4-0.8
		c3.6-2.2,6.3-5.6,9.9-7.8c1.2-1.1,3.1,0.3,2.9,1.7c0.1,0.8-0.8,1.3-1.2,1.9c-5,4.4-10.4,8.3-15,13c-1.6,1.4-2.6,3.3-3.5,5.2
		c-4.2,9-9.6,17.4-16.4,24.8c-6.8,7.2-14.2,14-22.8,19.4c-15.1,9.7-32.7,15.4-50.7,17.4c-1.7,0.3-3.4,0.1-5.1-0.3
		c1.5-1.7,3-3.3,4.8-4.6c4.5-3.3,8.7-7,12.7-10.8c5-1.8,10.2-2.9,15-5c15.1-6,28.7-15.8,38.6-28.4
		C201.8,173,205.9,165.3,209.7,157.6z"/>
	<path class="st4" d="M16.3,161.8c4.4-3.3,8.7-6.6,13.2-9.8c2.6,7.2,6,14.2,10.3,20.6c-3.5,4-8.4,6.5-12.3,10.2
		c-1.1-1.7-2.2-3.4-3.4-5.1c-4,2.3-6.9,5.9-10.7,8.4c-0.9,0.7-2.5-0.4-2.5-1.4c-0.3-1.2,0.9-2,1.7-2.8c3-2.6,6.2-5.1,9.2-7.7
		c-1.8-4.1-4.1-8-5.8-12.2L16.3,161.8z"/>
</g>
<g>
	<path class="st4" d="M662.5,46.6c2.8-6,8.9-9.8,15.2-10.4c9-0.8,18.8-0.1,26.4,5.6c-1,2.1-2.1,4.2-3.1,6.3
		c-7.8-4.6-17.4-7.3-26.1-3.9c-6.5,2.8-9,13.2-2.8,17.8c7.7,5.5,18,3.9,26.1,8.4c12.1,5.5,13.7,25,3.5,33.2c-6,5-14,6.4-21.5,6.1
		c-6.9-0.3-13.9-1.7-19.9-5.2c-2.7-1.9,0.3-5.3,0.6-7.8c6.3,2.3,12.5,5.4,19.3,5.5c5.5,0.2,11.7-0.2,16.2-4
		c6.1-5.1,5.5-16.7-1.5-20.6c-7.8-3.8-16.9-3.9-24.8-7.2C661.5,66.4,658.5,54.9,662.5,46.6z"/>
	<g>
		<path class="st4" d="M762.7,36.5c11-1.7,23,0.1,31.6,7.8c15.8,13,16.7,40.6,2.2,54.9c-13.8,13.8-38,14.1-52.1,0.7
			c-14.5-13.5-14.7-40.1-0.3-53.7C749.2,41.1,755.7,37.6,762.7,36.5z M762.6,43.8c-7.8,2-14.8,7.6-18.3,15.2
			c-5.5,12.5-3.1,29.3,8.1,37.6c10.6,8.3,26.8,7.8,36.9-1.2c13.1-11.4,12.7-35.5-1-46.2C781.1,43.4,771.4,41.4,762.6,43.8z"/>
	</g>
	<path class="st4" d="M388,37.5c3.7-0.1,7.5-0.1,11.2-0.1c0.1,23.6-0.1,47.1,0.1,70.7c-2.6,0.1-5.3,0.1-7.9,0
		c0.1-12.3,0.1-24.6,0-36.9c0-8.1,0.6-16.3-0.2-24.4c-4.1,4.1-6.7,9.4-10.1,14.2c-4.3,6.2-8.2,12.6-12.5,18.8
		c-0.8,1.3-2.7,3.4-4.1,1.5c-8.6-11-14.8-23.8-23.5-34.6c-0.1,20.5,0.2,41-0.1,61.5c-2.6,0-5.2,0-7.8-0.1c-0.3-23.5-0.2-47,0-70.5
		c3.8-0.2,7.6-0.2,11.3,0.1c7.3,11,14,22.5,21.9,33C373.7,59.8,380.9,48.7,388,37.5z"/>
	<g>
		<path class="st4" d="M429.3,37.4c8.5,0.1,17,0,25.5,0.1c6.4-0.1,12.6,2.6,17.6,6.6c9.9,8.4,8.1,26.9-3.3,33.1
			c-9.7,6.4-21.5,3-32.3,4.5c0.1,8.8,0.2,17.7-0.1,26.5c-2.6,0-5.2-0.1-7.7-0.1c-0.4-16.1-0.1-32.2-0.2-48.3
			C428.8,52.3,428.5,44.8,429.3,37.4z M437.2,44.3c-0.4,9.9-0.3,19.9-0.1,29.8c8.8-0.1,18.2,1.4,26.6-2.4c9-4.3,9.5-19.6,0.7-24.4
			C456,42.9,446.2,44.3,437.2,44.3z"/>
	</g>
	<path class="st4" d="M554.4,37.4c2.7,0,5.3,0,8-0.1c0.7,7.9,0.2,15.8,0.4,23.7c0,9.4,0.4,18.9-1.5,28.1
		c-1.7,8.2-7.5,15.5-15.2,18.4c-10.2,3.9-22.8,2.8-31.4-4.6c-6.6-5.9-9-15.4-9-24.1c0-13.7-0.2-27.5,0.1-41.2c2.6-0.1,5.2-0.1,7.8,0
		c0.3,13.8,0,27.5,0.1,41.3c0.2,6.8,2,14.3,7,19.1c8.6,7.1,23.3,6,29.7-3.6c3.8-5.6,4.2-12.7,4-19.3C554.4,62.5,554.7,50,554.4,37.4
		z"/>
	<path class="st4" d="M295.1,37.6c2.7-0.1,5.3,0,8,0c0.2,23.5,0.2,47,0,70.5c-2.7,0-5.3,0-8,0C294.8,84.7,294.9,61.2,295.1,37.6z"/>
	<path class="st4" d="M592.1,37.7c2.5-0.1,5.1-0.1,7.6-0.1c0.2,21,0.2,41.9,0,62.9c11.1,0.9,22.2,0.1,33.3,0.4c0,2.3,0,4.6,0,6.9
		c-13.6,0.8-27.4,0.4-41,0.2C591.3,84.6,592,61.2,592.1,37.7z"/>
</g>
<g>
	<path class="st4" d="M269.6,211.5c-4.6,0-8.4-1-11.5-2.9c-3-1.9-5.3-4.7-6.9-8.2c-1.6-3.5-2.4-7.6-2.6-12.2
		c-0.1-2.4-0.1-4.9-0.1-7.6c0-2.7,0-5.3,0.1-7.7c0.2-4.6,1-8.7,2.6-12.2c1.6-3.5,3.8-6.2,6.9-8.2c3-2,6.8-2.9,11.5-2.9
		c3.5,0,6.5,0.5,9.1,1.6c2.6,1.1,4.8,2.6,6.5,4.4c1.7,1.8,3,3.9,3.9,6.2c0.9,2.3,1.4,4.6,1.5,7c0,0.5-0.1,0.9-0.4,1.3
		c-0.3,0.3-0.7,0.5-1.2,0.5h-4.1c-0.5,0-0.8-0.1-1.2-0.4c-0.3-0.3-0.6-0.8-0.7-1.5c-0.9-4.5-2.4-7.5-4.8-9.2
		c-2.3-1.7-5.2-2.5-8.8-2.5c-4,0-7.2,1.3-9.5,3.9c-2.4,2.6-3.6,6.8-3.8,12.5c-0.1,4.7-0.1,9.5,0,14.5c0.2,5.7,1.5,9.9,3.8,12.5
		c2.4,2.6,5.5,3.9,9.5,3.9c3.5,0,6.4-0.8,8.8-2.5c2.3-1.7,3.9-4.7,4.8-9.2c0.2-0.7,0.4-1.3,0.7-1.5c0.3-0.3,0.7-0.4,1.2-0.4h4.1
		c0.5,0,0.8,0.2,1.2,0.5c0.3,0.3,0.5,0.8,0.4,1.3c-0.1,2.4-0.6,4.7-1.5,7c-0.9,2.3-2.2,4.3-3.9,6.2c-1.7,1.8-3.9,3.3-6.5,4.4
		C276.1,210.9,273.1,211.5,269.6,211.5z"/>
	<path class="st4" d="M324.6,211.5c-4.3,0-7.9-0.8-11-2.5c-3.1-1.7-5.4-4.3-7.1-7.8c-1.7-3.5-2.6-8-2.8-13.3c-0.1-2.5-0.1-5-0.1-7.3
		s0-4.7,0.1-7.3c0.2-5.3,1.2-9.7,2.9-13.2c1.7-3.5,4.1-6.2,7.2-7.9c3.1-1.8,6.6-2.6,10.7-2.6c4.1,0,7.7,0.9,10.8,2.6
		c3.1,1.8,5.5,4.4,7.2,7.9c1.8,3.5,2.7,7.9,2.9,13.2c0.1,2.5,0.2,5,0.2,7.3s-0.1,4.7-0.2,7.3c-0.1,5.3-1.1,9.8-2.7,13.3
		c-1.7,3.5-4,6.1-7.1,7.8C332.6,210.6,328.9,211.5,324.6,211.5z M324.6,204.2c3.9,0,7-1.3,9.4-4c2.4-2.6,3.7-6.9,3.9-12.8
		c0.1-2.6,0.2-4.9,0.2-6.9c0-2-0.1-4.3-0.2-6.8c-0.1-4-0.7-7.2-1.9-9.6c-1.2-2.5-2.7-4.3-4.7-5.4c-2-1.1-4.2-1.7-6.8-1.7
		c-2.5,0-4.7,0.6-6.6,1.7c-2,1.1-3.5,3-4.7,5.4c-1.2,2.5-1.8,5.7-2,9.6c-0.1,2.5-0.1,4.8-0.1,6.8c0,2,0,4.3,0.1,6.9
		c0.2,5.9,1.5,10.2,4,12.8C317.7,202.8,320.8,204.2,324.6,204.2z"/>
	<path class="st4" d="M363.4,210.6c-0.6,0-1-0.2-1.3-0.6c-0.3-0.4-0.5-0.8-0.5-1.4v-56.2c0-0.6,0.2-1.1,0.5-1.5
		c0.3-0.4,0.7-0.6,1.3-0.6h17.1c5.2,0,9.3,0.9,12.5,2.7c3.2,1.8,5.5,4.4,6.9,7.9c1.5,3.5,2.2,7.7,2.3,12.8c0,2.6,0.1,4.9,0.1,6.8
		c0,2,0,4.2-0.1,6.7c-0.1,5.3-0.9,9.7-2.3,13.1c-1.4,3.5-3.7,6.1-6.8,7.7c-3.1,1.7-7.1,2.5-12.2,2.5H363.4z M369,203.3h11.4
		c3.5,0,6.2-0.5,8.3-1.6c2.1-1.1,3.5-2.8,4.5-5.3c0.9-2.4,1.4-5.6,1.5-9.6c0.1-1.7,0.1-3.2,0.1-4.5c0-1.3,0-2.6,0-3.9
		c0-1.3-0.1-2.8-0.1-4.4c-0.1-5.6-1.3-9.7-3.5-12.4c-2.2-2.7-5.9-4-11.1-4h-11V203.3z"/>
	<path class="st4" d="M420.2,210.6c-0.6,0-1-0.2-1.3-0.6c-0.3-0.4-0.5-0.8-0.5-1.4v-56.2c0-0.6,0.2-1.1,0.5-1.5
		c0.3-0.4,0.7-0.6,1.3-0.6h31c0.6,0,1,0.2,1.3,0.6c0.3,0.4,0.5,0.9,0.5,1.5v3.3c0,0.6-0.2,1.1-0.5,1.5c-0.3,0.3-0.7,0.5-1.3,0.5
		h-25.5v18.9h23.9c0.6,0,1,0.2,1.3,0.6c0.3,0.4,0.5,0.9,0.5,1.5v3.2c0,0.6-0.2,1-0.5,1.4c-0.3,0.4-0.7,0.6-1.3,0.6h-23.9v19.5h26.1
		c0.6,0,1,0.2,1.3,0.5c0.3,0.3,0.5,0.8,0.5,1.5v3.4c0,0.6-0.1,1-0.5,1.4c-0.3,0.4-0.7,0.6-1.3,0.6H420.2z"/>
	<path class="st4" d="M507.4,211.5c-3.5,0-6.5-0.7-9.1-2.2c-2.6-1.4-4.6-3.4-6.1-6c-1.5-2.6-2.2-5.5-2.2-8.8c0-2.6,0.5-5,1.5-6.9
		c1-2,2.3-3.7,3.9-5.3c1.6-1.5,3.4-3,5.3-4.2c-2.4-2.9-4-5.4-5-7.6c-1-2.2-1.5-4.4-1.5-6.8c0-2.6,0.6-4.9,1.7-7.1
		c1.2-2.1,2.8-3.8,4.9-5.2c2.1-1.3,4.6-2,7.4-2c2.8,0,5.2,0.6,7.2,1.9c2.1,1.3,3.7,3,4.8,5.1c1.2,2.1,1.7,4.5,1.7,7.1
		c0,2.5-0.5,4.7-1.6,6.6c-1.1,1.9-2.4,3.6-4.2,5.1c-1.7,1.5-3.6,2.9-5.7,4.2l12.8,14.4c0.8-1.6,1.6-3.5,2.3-5.6
		c0.7-2.1,1.3-4.6,1.7-7.5c0.2-1.1,0.7-1.7,1.7-1.7h3.3c0.5,0,0.8,0.2,1.1,0.5c0.3,0.3,0.5,0.8,0.5,1.3c-0.1,1.3-0.2,2.6-0.5,4
		c-0.3,1.4-0.7,3-1.2,4.6c-0.5,1.6-1.2,3.2-1.9,4.8c-0.7,1.6-1.6,3.1-2.5,4.7l7.7,8.7c0.5,0.5,0.7,0.9,0.7,1.3
		c0,0.5-0.1,0.9-0.4,1.2c-0.3,0.3-0.6,0.4-1.1,0.4h-4.2c-0.5,0-0.9-0.1-1.2-0.3c-0.3-0.2-0.6-0.4-0.8-0.6l-5-5.6
		c-2,2.2-4.3,3.9-6.9,5.3C514,210.8,510.9,211.5,507.4,211.5z M507.4,204.6c2,0,4-0.5,6-1.4c2-0.9,3.9-2.4,5.6-4.3l-14-15.8
		c-2.2,1.4-4,2.9-5.6,4.7c-1.6,1.8-2.4,3.9-2.4,6.5c0,2.2,0.5,4,1.5,5.6c1,1.5,2.3,2.7,3.9,3.5C503.9,204.2,505.6,204.6,507.4,204.6
		z M506.5,174.6c1.6-1,3.1-2.1,4.5-3.1c1.4-1,2.5-2.2,3.3-3.4c0.8-1.3,1.2-2.7,1.2-4.3c0-2.3-0.7-4.1-2.1-5.5
		c-1.4-1.4-3.1-2.1-5.2-2.1c-2,0-3.7,0.7-5.1,2c-1.5,1.3-2.2,3.2-2.2,5.6c0,1,0.2,2,0.5,3c0.3,1,0.9,2.1,1.7,3.3
		C503.9,171.3,505,172.8,506.5,174.6z"/>
	<path class="st4" d="M574.8,210.6c-0.6,0-1-0.2-1.3-0.6c-0.3-0.4-0.5-0.8-0.5-1.4v-56.2c0-0.6,0.1-1.1,0.5-1.5
		c0.3-0.4,0.7-0.6,1.3-0.6h17.1c5.2,0,9.3,0.9,12.5,2.7c3.2,1.8,5.5,4.4,6.9,7.9c1.5,3.5,2.2,7.7,2.3,12.8c0.1,2.6,0.1,4.9,0.1,6.8
		c0,2,0,4.2-0.1,6.7c-0.1,5.3-0.9,9.7-2.3,13.1c-1.4,3.5-3.7,6.1-6.8,7.7c-3.1,1.7-7.1,2.5-12.2,2.5H574.8z M580.4,203.3h11.4
		c3.5,0,6.2-0.5,8.3-1.6c2.1-1.1,3.5-2.8,4.5-5.3c0.9-2.4,1.4-5.6,1.5-9.6c0.1-1.7,0.2-3.2,0.2-4.5c0-1.3,0-2.6,0-3.9
		c0-1.3-0.1-2.8-0.2-4.4c-0.1-5.6-1.3-9.7-3.5-12.4c-2.2-2.7-5.9-4-11.1-4h-11V203.3z"/>
	<path class="st4" d="M631.5,210.6c-0.6,0-1-0.2-1.3-0.6c-0.3-0.4-0.5-0.8-0.5-1.4v-56.2c0-0.6,0.1-1.1,0.5-1.5
		c0.3-0.4,0.7-0.6,1.3-0.6h31c0.6,0,1,0.2,1.3,0.6c0.3,0.4,0.5,0.9,0.5,1.5v3.3c0,0.6-0.2,1.1-0.5,1.5c-0.3,0.3-0.7,0.5-1.3,0.5H637
		v18.9h23.9c0.6,0,1,0.2,1.3,0.6c0.3,0.4,0.5,0.9,0.5,1.5v3.2c0,0.6-0.2,1-0.5,1.4c-0.3,0.4-0.7,0.6-1.3,0.6H637v19.5h26.1
		c0.6,0,1,0.2,1.3,0.5c0.3,0.3,0.5,0.8,0.5,1.5v3.4c0,0.6-0.2,1-0.5,1.4c-0.3,0.4-0.7,0.6-1.3,0.6H631.5z"/>
	<path class="st4" d="M697.3,211.5c-4.4,0-8-0.8-11-2.3c-3-1.5-5.2-3.5-6.8-5.9c-1.6-2.4-2.4-5-2.5-7.8c0-0.5,0.2-0.9,0.5-1.2
		c0.3-0.4,0.7-0.6,1.2-0.6h3.8c0.6,0,1.1,0.2,1.4,0.5c0.3,0.3,0.5,0.7,0.6,1.2c0.3,1.4,0.9,2.7,1.8,4.1c1,1.3,2.4,2.5,4.1,3.4
		c1.8,0.9,4.1,1.3,6.9,1.3c4.3,0,7.5-0.9,9.5-2.6c2-1.8,3-4.1,3-7c0-2-0.5-3.6-1.6-4.9c-1.1-1.2-2.7-2.3-4.9-3.3
		c-2.2-1-5.1-2-8.6-3.2c-3.7-1.2-6.7-2.5-9.1-4c-2.4-1.4-4.2-3.2-5.4-5.3c-1.2-2.1-1.8-4.8-1.8-8.1c0-3.1,0.7-5.9,2.2-8.3
		c1.5-2.4,3.5-4.4,6.3-5.8s6-2.2,10-2.2c3.1,0,5.8,0.5,8.2,1.4c2.3,0.9,4.3,2.2,5.8,3.8c1.6,1.6,2.7,3.3,3.5,5.1
		c0.8,1.8,1.2,3.6,1.3,5.3c0,0.4-0.1,0.8-0.4,1.2c-0.3,0.4-0.7,0.6-1.2,0.6h-4c-0.4,0-0.7-0.1-1.1-0.3c-0.4-0.2-0.7-0.7-0.9-1.3
		c-0.3-2.4-1.5-4.3-3.5-5.9c-2-1.6-4.6-2.4-7.8-2.4c-3.3,0-5.9,0.7-7.9,2.2c-2,1.4-3,3.7-3,6.7c0,2,0.5,3.6,1.4,4.9
		c1,1.3,2.5,2.4,4.5,3.4c2.1,1,4.7,2,8,3.1c4,1.3,7.3,2.6,9.8,4c2.6,1.4,4.4,3.2,5.7,5.3c1.2,2.1,1.8,4.8,1.8,8
		c0,3.6-0.8,6.7-2.5,9.3s-4,4.5-6.9,5.9C704.9,210.8,701.3,211.5,697.3,211.5z"/>
	<path class="st4" d="M733.9,210.6c-0.6,0-1-0.2-1.3-0.6c-0.3-0.4-0.5-0.8-0.5-1.4v-56.3c0-0.6,0.1-1,0.5-1.4
		c0.3-0.4,0.7-0.6,1.3-0.6h4c0.5,0,0.9,0.2,1.2,0.6c0.3,0.4,0.5,0.8,0.5,1.4v56.3c0,0.6-0.2,1-0.5,1.4c-0.3,0.4-0.7,0.6-1.2,0.6
		H733.9z"/>
	<path class="st4" d="M776.8,211.5c-4.4,0-8.2-0.9-11.2-2.8c-3.1-1.9-5.4-4.6-7.1-8c-1.6-3.4-2.5-7.5-2.7-12.1
		c-0.1-2.5-0.1-5.2-0.1-8s0-5.6,0.1-8.1c0.2-4.6,1.1-8.7,2.7-12.1c1.6-3.4,4-6,7.1-7.9c3.1-1.9,6.8-2.8,11.2-2.8
		c3.6,0,6.6,0.6,9.2,1.7c2.6,1.1,4.7,2.6,6.4,4.3c1.7,1.8,2.9,3.6,3.8,5.5c0.8,1.9,1.3,3.6,1.3,5c0,0.5-0.1,0.9-0.4,1.2
		c-0.3,0.3-0.7,0.5-1.2,0.5h-4.4c-0.5,0-0.9-0.1-1.1-0.3c-0.2-0.2-0.4-0.6-0.6-1.2c-0.5-1.5-1.2-3-2.2-4.4c-1-1.4-2.4-2.6-4.1-3.6
		c-1.7-0.9-3.9-1.4-6.6-1.4c-4,0-7.1,1.2-9.6,3.7c-2.4,2.5-3.7,6.5-3.9,12.2c-0.2,5.1-0.2,10.2,0,15.3c0.2,5.7,1.5,9.9,4,12.4
		c2.5,2.5,5.7,3.7,9.6,3.7c2.7,0,5-0.6,7.1-1.7c2.1-1.1,3.7-2.9,4.9-5.2c1.2-2.4,1.8-5.3,1.8-9v-3.6h-11.3c-0.5,0-0.9-0.2-1.2-0.6
		c-0.3-0.4-0.5-0.9-0.5-1.5v-2.8c0-0.6,0.2-1.1,0.5-1.5c0.3-0.4,0.7-0.6,1.2-0.6h17c0.6,0,1,0.2,1.3,0.6c0.3,0.4,0.5,0.9,0.5,1.5
		v8.3c0,4.7-0.8,8.8-2.5,12.3c-1.7,3.5-4.1,6.2-7.3,8.1C785,210.5,781.2,211.5,776.8,211.5z"/>
	<path class="st4" d="M815.6,210.6c-0.6,0-1-0.2-1.3-0.6c-0.3-0.4-0.5-0.8-0.5-1.4v-56.2c0-0.6,0.1-1.1,0.5-1.5
		c0.3-0.4,0.7-0.6,1.3-0.6h3.5c0.6,0,1.1,0.2,1.4,0.5c0.3,0.3,0.5,0.6,0.5,0.7l24.9,43.9v-43c0-0.6,0.2-1.1,0.5-1.5
		c0.3-0.4,0.7-0.6,1.3-0.6h3.6c0.6,0,1,0.2,1.3,0.6c0.3,0.4,0.5,0.9,0.5,1.5v56.1c0,0.6-0.2,1.1-0.5,1.5c-0.3,0.4-0.7,0.6-1.2,0.6
		h-3.6c-0.6,0-1-0.2-1.2-0.5c-0.3-0.3-0.5-0.6-0.6-0.7L821,165.9v42.7c0,0.6-0.2,1-0.5,1.4c-0.3,0.4-0.8,0.6-1.3,0.6H815.6z"/>
</g>
</svg>
